<svg width="24" height="24" viewBox="0 0 24 24" fill="#EA001E" xmlns="http://www.w3.org/2000/svg">
<path fillRule="evenodd" clipRule="evenodd" d="M10.5282 2.28312C10.9775 2.03017 11.4844 1.89728 12 1.89728C12.5156 1.89728 13.0225 2.03017 13.4718 2.28312C13.9211 2.53607 14.2976 2.90055 14.565 3.34139L14.5679 3.34614L23.0379 17.4862L23.046 17.5C23.3079 17.9536 23.4465 18.4679 23.448 18.9917C23.4495 19.5156 23.3138 20.0307 23.0543 20.4858C22.7949 20.9408 22.4209 21.3201 21.9694 21.5857C21.518 21.8514 21.0048 21.9942 20.481 22L20.47 22.0001L3.51901 22C2.9952 21.9943 2.48204 21.8514 2.03057 21.5857C1.5791 21.3201 1.20505 20.9408 0.945647 20.4858C0.686244 20.0307 0.550524 19.5156 0.551991 18.9917C0.553458 18.4679 0.69206 17.9536 0.954007 17.5L0.962131 17.4862L9.43499 3.34139C9.70239 2.90055 10.0789 2.53607 10.5282 2.28312ZM12 3.89728C11.8281 3.89728 11.6592 3.94157 11.5094 4.02589C11.3603 4.10983 11.2353 4.23061 11.1462 4.37666L2.68269 18.5058C2.59751 18.6556 2.55247 18.8249 2.55198 18.9973C2.55149 19.172 2.59673 19.3436 2.6832 19.4953C2.76967 19.647 2.89435 19.7735 3.04484 19.862C3.19402 19.9498 3.36339 19.9973 3.53639 20H20.4636C20.6366 19.9973 20.806 19.9498 20.9552 19.862C21.1056 19.7735 21.2303 19.647 21.3168 19.4953C21.4033 19.3436 21.4485 19.172 21.448 18.9973C21.4475 18.825 21.4025 18.6557 21.3173 18.5059L12.855 4.37865C12.8546 4.37799 12.8542 4.37732 12.8538 4.37666C12.7647 4.23061 12.6397 4.10983 12.4906 4.02589C12.3408 3.94157 12.1719 3.89728 12 3.89728ZM12 8.00002C12.5523 8.00002 13 8.44774 13 9.00002V13C13 13.5523 12.5523 14 12 14C11.4477 14 11 13.5523 11 13V9.00002C11 8.44774 11.4477 8.00002 12 8.00002ZM11 17C11 16.4477 11.4477 16 12 16H12.01C12.5623 16 13.01 16.4477 13.01 17C13.01 17.5523 12.5623 18 12.01 18H12C11.4477 18 11 17.5523 11 17Z" fill="#EA001E"/>
</svg>
