<svg version="1.2" xmlns="http://www.w3.org/2000/svg" viewBox="0 0 24 24" width="24" height="24">
	<title>image</title>
	<defs>
		<clipPath clipPathUnits="userSpaceOnUse" id="cp1">
			<path d="m0 0h24v24h-24z"/>
		</clipPath>
	</defs>
	<style>
		.s0 { fill: #000000 } 
	</style>
	<g id="Clip-Path" clip-path="url(#cp1)">
		<g id="Layer">
			<path id="Layer" fillRule="evenodd" className="s0" d="m23.9 11.6c0.1 0.2 0.1 0.6 0 0.9q-1 1.8-2.3 3.3c-0.2 0.2-0.4 0.4-0.7 0.4-0.3 0-0.6-0.1-0.8-0.3l-10.9-11c-0.3-0.2-0.4-0.6-0.3-0.9 0.1-0.4 0.4-0.7 0.8-0.7q1.1-0.3 2.3-0.3c3.9 0 6.9 2.2 8.9 4.3 0.9 1.1 1.7 2.1 2.2 2.9q0.4 0.6 0.6 1 0.1 0.1 0.1 0.2 0.1 0.1 0.1 0.1zm-11.9-8.5q0 0 0 0v1zm0.1 2l8.6 8.7q0.6-0.8 1.2-1.7-0.2-0.3-0.5-0.7c-0.4-0.7-1.1-1.7-2-2.6-1.8-1.9-4.3-3.7-7.3-3.7zm-6.7 0.3c0.4-0.3 1-0.3 1.4 0l3.8 3.9q0 0 0 0l4.2 4.2c0 0 3.8 3.8 3.8 3.8 0.2 0.2 0.4 0.5 0.3 0.8 0 0.3-0.1 0.6-0.4 0.7-1.8 1.5-4.1 2.3-6.5 2.3-3.9 0-6.9-2.2-8.9-4.3-0.9-1.1-1.7-2.1-2.2-2.9q-0.4-0.6-0.6-1-0.1-0.1-0.1-0.2-0.1-0.1-0.1-0.1v-0.1c0 0 0 0 0.9-0.4l-0.9 0.4c-0.1-0.2-0.1-0.6 0-0.9 1.3-2.4 3.1-4.6 5.3-6.2zm-3.3 6.7q0.2 0.3 0.5 0.7c0.4 0.7 1.1 1.7 2 2.6 1.8 1.9 4.3 3.7 7.4 3.7 1.5 0 3-0.5 4.4-1.2l-2.4-2.3q-0.2 0.1-0.5 0.2-0.7 0.4-1.5 0.4-0.8 0-1.6-0.3-0.7-0.3-1.3-0.9-0.6-0.6-0.9-1.3-0.3-0.8-0.3-1.6 0-0.8 0.4-1.6 0.1-0.2 0.2-0.5l-2.5-2.5c-1.6 1.3-2.9 2.9-3.9 4.6zm7.9-0.6q-0.1 0.3-0.1 0.6 0 0.4 0.2 0.8 0.1 0.4 0.4 0.7 0.3 0.3 0.7 0.4 0.3 0.2 0.8 0.2 0.3 0 0.6-0.1z"/>
			<path id="Layer" fillRule="evenodd" className="s0" d="m0.3 0.3c0.4-0.4 1-0.4 1.4 0l22 22c0.4 0.4 0.4 1 0 1.4-0.4 0.4-1 0.4-1.4 0l-22-22c-0.4-0.4-0.4-1 0-1.4z"/>
		</g>
	</g>
</svg>