<svg version="1.2" xmlns="http://www.w3.org/2000/svg" viewBox="0 0 24 24" width="24" height="24">
	<title>image</title>
	<style>
		.s0 { fill: #000000 } 
	</style>
	<path id="Layer" fillRule="evenodd" className="s0" d="m23.9 12.4v0.1q0 0-0.1 0.1 0 0.1-0.1 0.2-0.2 0.4-0.6 1c-0.5 0.8-1.3 1.8-2.2 2.9-2 2.1-5 4.3-8.9 4.3-3.9 0-6.9-2.2-8.9-4.3-0.9-1.1-1.7-2.1-2.2-2.9q-0.4-0.6-0.6-1-0.1-0.1-0.1-0.2-0.1-0.1-0.1-0.1v-0.1c-0.1-0.2-0.1-0.6 0-0.8l0.9 0.4c-0.9-0.4-0.9-0.4-0.9-0.4v-0.1q0 0 0.1-0.1 0-0.1 0.1-0.2 0.2-0.4 0.6-1c0.5-0.8 1.3-1.8 2.2-2.9 2-2.1 5-4.3 8.9-4.3 3.9 0 6.9 2.2 8.9 4.3 0.9 1.1 1.7 2.1 2.2 2.9q0.4 0.6 0.6 1 0.1 0.1 0.1 0.2 0.1 0.1 0.1 0.1v0.1q0 0 0 0 0 0 0 0l-0.9 0.4c0.9 0.4 0.9 0.4 0.9 0.4zm-23.8 0l0.9-0.4c-0.9 0.4-0.9 0.4-0.9 0.4zm2-0.4q0.2 0.3 0.5 0.7c0.4 0.7 1.1 1.7 2 2.6 1.8 1.9 4.3 3.7 7.4 3.7 3.1 0 5.6-1.8 7.4-3.7 0.9-0.9 1.6-1.9 2-2.6q0.3-0.4 0.5-0.7-0.2-0.3-0.5-0.7c-0.4-0.7-1.1-1.7-2-2.6-1.8-1.9-4.3-3.7-7.4-3.7-3.1 0-5.6 1.8-7.4 3.7-0.9 0.9-1.6 1.9-2 2.6q-0.3 0.4-0.5 0.7zm20.9 0c0.9-0.4 0.9-0.4 0.9-0.4 0.1 0.2 0.1 0.6 0 0.8zm-15 0c0-2.2 1.8-4 4-4 2.2 0 4 1.8 4 4 0 2.3-1.8 4-4 4-2.2 0-4-1.7-4-4zm4-2c-1.1 0-2 0.9-2 2 0 1.2 0.9 2 2 2 1.1 0 2-0.8 2-2 0-1.1-0.9-2-2-2z"/>
</svg>